<svg xmlns="http://www.w3.org/2000/svg" width="280.19" height="259.452" viewBox="0 0 280.19 259.452">
  <g id="Layer_2" data-name="Layer 2" transform="translate(0.002 -0.004)">
    <g id="Vector" transform="translate(-0.002 0.004)">
      <path id="Path_2079" data-name="Path 2079" d="M278.9,61.92c-7.469-25.943-48.537-43.555-81.27-48.191-32.8-4.636-57.266,3.695-77.094,9.225-5.741,1.569-11.092,2.912-16.352,4.176,3.321,3.576,5.352,7.787,5.352,9.213,0,2.622-5.9,25.252-11.482,25.252S86.572,38.619,86.572,33.045a15.134,15.134,0,0,1,.123-1.8C79.318,33,71.511,34.944,62.528,37.455,39.676,43.839,9.291,53.99,1.9,71.733c-7.394,17.811,8.2,43.217,21.851,72.521C37.344,173.495,49.021,206.7,71.94,219.668A48.775,48.775,0,0,0,82.1,223.959c.139-.679.266-1.3.373-1.855-2.952-14.1-2.284-39.455-1.3-42.081,0,0,54.8,11.1,58.4,11.807.938-3.127,6.122-17.064,8.832-19.046s29.4-11.152,29.4-11.152-.02-14.477.31-17.755c-38.37-26.563-15.3-49.661-13.993-48.032s49.085,41.982,49.22,44.6c.123,2.872-5.657,26.9-10.3,41.211a367.761,367.761,0,0,0,32.312-32.026C260.2,122.209,286.346,87.93,278.9,61.92ZM85.261,156.678c-6.559,0-24.922-25.907-24.922-36.4,0-5.9,3.607-19.678,13.774-19.678,2.952,0,9.511,5.248,10.492,6.559a36.734,36.734,0,0,0,3.21,2.952c-.207,1.045-.795,3.937-1.4,6.957,4.958,5.606,14.259,17.405,14.259,26.166C100.676,150.778,99.035,156.678,85.261,156.678Zm5.562-46.566c-4.593,0-15.1-15.1-15.1-33.448A11.083,11.083,0,0,1,87.208,65.841c15.741,0,17.052,32.792,17.052,35.415.024,3.607-3.584,8.856-13.42,8.856Z" transform="translate(0.002 -7.461)" fill="#f2f2f2"/>
      <path id="Path_2081" data-name="Path 2081" d="M224.8,35.51c-5.248,0-6.889,8.2-6.889,11.478,0,5.562,5.9,28.533,11.478,28.533s11.482-22.646,11.482-25.252S233.98,35.51,224.8,35.51Z" transform="translate(-131.336 -21.404)" fill="none" stroke="#000" stroke-linecap="round" stroke-linejoin="round" stroke-width="2.5"/>
      <path id="Path_2080" data-name="Path 2080" d="M311.136,15.672,232.246.189a10.1,10.1,0,0,0-11.823,7.946L209.846,62.02c8.212,8.609,9.042,29.7,9.042,31.783,0,3.607-3.607,8.856-13.444,8.856a5.561,5.561,0,0,1-3.25-1.645l-.246,1.255c.314.27.473.4.473.4-.2,1.005-.795,4.036-1.4,6.957,4.958,5.594,14.259,17.393,14.259,26.154,0,7.549-1.641,13.444-15.415,13.444-1.589,0-3.838-1.5-6.357-3.921l-3.178,16.289a10.119,10.119,0,0,0,5.475,11c.242.048,54.715,11.08,58.4,11.8h0c.938-3.127,6.122-17.064,8.832-19.046s29.4-11.152,29.4-11.152-.02-14.477.31-17.755c-38.37-26.563-15.3-49.661-13.993-48.032.644.795,12.38,10.85,24.235,21.219L319.078,27.5A10.1,10.1,0,0,0,311.136,15.672Z" transform="translate(-114.603 -0.004)" fill="#fc0"/>
      <path id="Path_2082" data-name="Path 2082" d="M381.7,17.668l-1,5.081a4.791,4.791,0,0,1-5.614,3.77l-34.016-6.674a4.8,4.8,0,0,1-3.77-5.614l1.017-5.081" transform="translate(-203.244 -5.517)"/>
      <line id="Line_2" data-name="Line 2" x2="76.641" y2="15.041" transform="translate(69.562 153.575)" fill="none" stroke="#f2f2f2" stroke-width="3"/>
      <circle id="Ellipse_126" data-name="Ellipse 126" cx="3.985" cy="3.985" r="3.985" transform="translate(119.442 168.616)"/>
      <path id="Path_2083" data-name="Path 2083" d="M202.152,147c-6.889,0-11.482,5.244-11.482,10.822,0,18.363,10.5,33.448,15.1,33.448,9.837,0,13.444-5.248,13.444-8.856C219.2,179.773,217.892,147,202.152,147Z" transform="translate(-114.918 -88.6)" fill="none" stroke="#000" stroke-linecap="round" stroke-linejoin="round" stroke-width="2.5"/>
      <path id="Path_2084" data-name="Path 2084" d="M177.958,250.908c4.958,5.606,14.259,17.405,14.259,26.166,0,7.549-1.641,13.444-15.415,13.444-6.559,0-24.922-25.907-24.922-36.4,0-5.9,3.607-19.678,13.774-19.678,2.952,0,9.511,5.248,10.492,6.559a36.734,36.734,0,0,0,3.21,2.952c-.207,1.045-.795,3.937-1.4,6.957" transform="translate(-91.539 -141.301)" fill="none" stroke="#000" stroke-linecap="round" stroke-linejoin="round" stroke-width="2.5"/>
      <path id="Path_2085" data-name="Path 2085" d="M210.49,268.29c.421.421,1.446,1.49,2.781,3.019" transform="translate(-126.864 -161.703)" fill="none" stroke="#000" stroke-linecap="round" stroke-linejoin="round" stroke-width="2.5"/>
      <path id="Path_2086" data-name="Path 2086" d="M210.914,269.3A111.7,111.7,0,0,0,203,260.78" transform="translate(-122.349 -157.176)" fill="none" stroke="#000" stroke-linecap="round" stroke-linejoin="round" stroke-width="2.5"/>
      <path id="Path_2087" data-name="Path 2087" d="M254.055,391.893l7.215-28.859s43.924-38.374,48.187-45.255,14.267-47.059,14.124-50.829c-.115-2.622-47.882-42.963-49.193-44.6S250.01,243.8,288.381,270.377c-.33,3.278-.31,17.755-.31,17.755s-26.69,9.173-29.4,11.152-7.894,15.919-8.832,19.046c-3.607-.707-58.4-11.807-58.4-11.807-.981,2.626-1.649,27.981,1.3,42.081-1.986,10.167-9.841,43.3-9.841,43.3" transform="translate(-110.235 -133.961)" fill="none" stroke="#000" stroke-linecap="round" stroke-linejoin="round" stroke-width="2.5"/>
      <path id="Path_2088" data-name="Path 2088" d="M337.31,477.187c.894-3.417,5.228-15.689,6.305-18.617" transform="translate(-203.299 -276.386)" fill="none" stroke="#000" stroke-linecap="round" stroke-linejoin="round" stroke-width="2.5"/>
    </g>
  </g>
</svg>
