<svg xmlns="http://www.w3.org/2000/svg" width="17" height="20" viewBox="0 0 17 20">
  <g id="Group_336" data-name="Group 336" transform="translate(-4 -2)">
    <path id="Path_2682" data-name="Path 2682" d="M2,0H15a2,2,0,0,1,2,2V18a2,2,0,0,1-2,2H2a2,2,0,0,1-2-2V2A2,2,0,0,1,2,0Z" transform="translate(4 2)" fill="#333"/>
    <path id="Union_1" data-name="Union 1" d="M3518.5,1791.25a.75.75,0,0,1-.75-.75v-9a.75.75,0,0,1,1.5,0v9A.75.75,0,0,1,3518.5,1791.25Z" transform="translate(-3510 -1774)" fill="#fff"/>
  </g>
</svg>
