<svg xmlns="http://www.w3.org/2000/svg" width="19.093" height="21.573" viewBox="0 0 19.093 21.573">
  <g id="_002-home" data-name="002-home" transform="translate(0.75 0.823)">
    <g id="Group_71" data-name="Group 71" transform="translate(0 0)">
      <path id="Path_1045" data-name="Path 1045" d="M48.182,7.821,39.848.182A.7.7,0,0,0,38.9.2l-7.87,7.639a.7.7,0,0,0-.211.5V19.305a.694.694,0,0,0,.694.694H37.3a.694.694,0,0,0,.694-.694V14.213h3.241v5.093a.694.694,0,0,0,.694.694h5.787a.694.694,0,0,0,.694-.694V8.333A.7.7,0,0,0,48.182,7.821Z" transform="translate(-30.814 0)" fill="none" stroke="#333" stroke-width="1.5"/>
    </g>
  </g>
</svg>
