<svg id="_004-bell" data-name="004-bell" xmlns="http://www.w3.org/2000/svg" width="19.753" height="20.015" viewBox="0 0 19.753 20.015" fill="#333">
  <g id="Group_72" data-name="Group 72" transform="translate(0 0)">
    <path id="Path_1046" data-name="Path 1046" d="M22.864,14.037a2.137,2.137,0,0,0-.084-.345,2.2,2.2,0,0,0-2.434-1.422.636.636,0,0,1-.727-.529l-.528-3.377a7.364,7.364,0,0,0-5.278-5.983A2.84,2.84,0,0,0,8.2,3.245,7.106,7.106,0,0,0,4.982,10.36l.566,3.594a.641.641,0,0,1-.529.727,2.2,2.2,0,0,0-1.881,2.1,2.137,2.137,0,0,0,2.114,2.159h.022a2.191,2.191,0,0,0,.333-.026L7.8,18.569a2.825,2.825,0,0,0,5.235-.823l8.052-1.267A2.137,2.137,0,0,0,22.864,14.037ZM10.8,1.515a1.5,1.5,0,0,1,.224-.018,1.432,1.432,0,0,1,1.186.641h-.034a6.789,6.789,0,0,0-.8.023,7.234,7.234,0,0,0-.83.128c-.059.012-.118.029-.176.043-.224.053-.444.115-.66.188-.021.006-.043.01-.065.018A1.425,1.425,0,0,1,10.8,1.515ZM10.259,18.59a1.4,1.4,0,0,1-.838-.276L11.415,18A1.425,1.425,0,0,1,10.259,18.59Zm11.1-3.851a.712.712,0,0,1-.5.333l-8.579,1.349-4.169.656L5.387,17.5a.7.7,0,0,1-.575-.164.712.712,0,0,1-.25-.551.773.773,0,0,1,.678-.7,2.065,2.065,0,0,0,1.714-2.355l-.565-3.594A5.713,5.713,0,0,1,9.271,4.258l.036-.014a5.7,5.7,0,0,1,2.2-.665,5.144,5.144,0,0,1,.7-.014l.117.006a5.6,5.6,0,0,1,.723.091h.023a5.919,5.919,0,0,1,4.6,4.921l.531,3.377a2.06,2.06,0,0,0,2.355,1.716.773.773,0,0,1,.86.459A.712.712,0,0,1,21.361,14.739Z" transform="translate(-3.137 0.001)"/>
  </g>
</svg>
