<svg xmlns="http://www.w3.org/2000/svg" width="16.886" height="20.2" viewBox="0 0 16.886 20.2">
  <g id="_001-user" data-name="001-user" transform="translate(0.1 0.1)">
    <path id="Path_1043" data-name="Path 1043" d="M91.848,9.634a4.661,4.661,0,0,0,3.406-1.411,4.661,4.661,0,0,0,1.411-3.406,4.662,4.662,0,0,0-1.411-3.406,4.816,4.816,0,0,0-6.812,0,4.661,4.661,0,0,0-1.411,3.406,4.661,4.661,0,0,0,1.411,3.406A4.663,4.663,0,0,0,91.848,9.634Z" transform="translate(-83.632 0)" fill="#333" stroke="#333" stroke-width="0.2"/>
    <path id="Path_1044" data-name="Path 1044" d="M16.646,253.035a11.9,11.9,0,0,0-.162-1.264,9.957,9.957,0,0,0-.311-1.271,6.277,6.277,0,0,0-.522-1.185,4.467,4.467,0,0,0-.788-1.026,3.473,3.473,0,0,0-1.131-.711,3.91,3.91,0,0,0-1.444-.261,1.466,1.466,0,0,0-.783.332c-.235.153-.509.33-.816.526a4.673,4.673,0,0,1-1.055.465,4.1,4.1,0,0,1-2.581,0A4.659,4.659,0,0,1,6,248.175c-.3-.194-.578-.371-.816-.526a1.465,1.465,0,0,0-.783-.332,3.905,3.905,0,0,0-1.444.262,3.47,3.47,0,0,0-1.132.711,4.468,4.468,0,0,0-.787,1.026A6.288,6.288,0,0,0,.513,250.5a9.98,9.98,0,0,0-.311,1.27,11.817,11.817,0,0,0-.162,1.264c-.027.382-.04.779-.04,1.181a3.321,3.321,0,0,0,.986,2.513,3.55,3.55,0,0,0,2.542.927h9.63a3.551,3.551,0,0,0,2.542-.927,3.32,3.32,0,0,0,.986-2.513C16.686,253.813,16.672,253.415,16.646,253.035Z" transform="translate(0 -237.656)" fill="#333" stroke="#333" stroke-width="0.2"/>
  </g>
</svg>
